<svg width="112" height="104" xmlns="http://www.w3.org/2000/svg" xmlns:xlink="http://www.w3.org/1999/xlink" overflow="hidden"><defs><clipPath id="clip0"><rect x="331" y="360" width="112" height="104"/></clipPath><clipPath id="clip1"><rect x="347" y="372" width="80" height="80"/></clipPath><clipPath id="clip2"><rect x="347" y="372" width="80" height="80"/></clipPath><clipPath id="clip3"><rect x="347" y="372" width="80" height="80"/></clipPath></defs><g clip-path="url(#clip0)" transform="translate(-331 -360)"><path d="M333.5 412.5C333.5 384.886 357.677 362.5 387.5 362.5 417.323 362.5 441.5 384.886 441.5 412.5 441.5 440.114 417.323 462.5 387.5 462.5 357.677 462.5 333.5 440.114 333.5 412.5Z" stroke="#FFFFFF" stroke-width="1.33333" stroke-miterlimit="8" stroke-dasharray="4 1.33333" fill="none" fill-rule="evenodd"/><path d="M337.5 440.5C337.5 428.902 346.902 419.5 358.5 419.5 370.098 419.5 379.5 428.902 379.5 440.5 379.5 452.098 370.098 461.5 358.5 461.5 346.902 461.5 337.5 452.098 337.5 440.5Z" stroke="#FF7800" stroke-width="1.33333" stroke-miterlimit="8" fill="#FF7800" fill-rule="evenodd"/><g clip-path="url(#clip1)"><g clip-path="url(#clip2)"><g clip-path="url(#clip3)"><path d="M386.999 386.189C388.379 386.189 389.498 385.07 389.498 383.691L389.498 374.498C389.498 373.118 388.379 372 386.999 372 385.619 372 384.501 373.118 384.501 374.498L384.501 383.691C384.501 385.07 385.619 386.189 386.999 386.189Z" fill="#04192E"/><path d="M413.624 427.186 406.486 427.186 395.52 395.521C396.975 393.675 397.847 391.348 397.847 388.82 397.847 384.639 395.469 381.004 391.996 379.194L391.996 384.368C391.996 384.776 391.946 385.173 391.853 385.554 392.483 386.487 392.851 387.612 392.851 388.82 392.851 392.046 390.226 394.671 387 394.671 383.774 394.671 381.149 392.046 381.149 388.82 381.149 387.611 381.518 386.487 382.148 385.554 382.054 385.173 382.004 384.776 382.004 384.368L382.004 379.193C378.531 381.004 376.153 384.639 376.153 388.82 376.153 391.348 377.025 393.675 378.48 395.521L367.514 427.186 360.376 427.186C359.723 427.186 359.193 427.717 359.193 428.37L359.193 430.342C359.193 430.994 359.723 431.525 360.376 431.525L366.01 431.525 363.283 439.399C363.159 439.759 363.35 440.153 363.71 440.277L363.99 440.375 360.504 450.438C360.379 450.798 360.57 451.191 360.93 451.317L362.794 451.962C363.126 452.077 363.491 451.924 363.643 451.607L368.293 441.865 369.301 442.214C369.661 442.338 370.054 442.148 370.179 441.788L373.734 431.526 384.653 431.526 384.653 432.138C384.653 433.431 385.706 434.484 387 434.484 388.294 434.484 389.347 433.432 389.347 432.138L389.347 431.526 400.267 431.526 403.821 441.788C403.946 442.148 404.34 442.339 404.7 442.214L405.707 441.865 410.358 451.607C410.509 451.924 410.875 452.077 411.206 451.962L413.07 451.317C413.431 451.192 413.621 450.799 413.497 450.438L410.011 440.375 410.291 440.277C410.651 440.153 410.842 439.76 410.717 439.399L407.99 431.525 413.624 431.525C414.277 431.525 414.807 430.994 414.807 430.342L414.807 428.37C414.807 427.717 414.276 427.186 413.624 427.186ZM389.346 427.186 389.346 426.574C389.346 425.28 388.294 424.227 386.999 424.227 385.705 424.227 384.653 425.28 384.653 426.574L384.653 427.186 375.235 427.186 384.841 399.451C385.538 399.592 386.26 399.667 386.999 399.667 387.738 399.667 388.46 399.592 389.157 399.451L398.763 427.186 389.346 427.186Z" fill="#04192E"/></g></g></g></g></svg>