<svg width="16" height="16" viewBox="0 0 16 16" xmlns="http://www.w3.org/2000/svg" xmlns:xlink="http://www.w3.org/1999/xlink" fill="currentColor" overflow="hidden"><path d="M9.972 2.508C10.0422 2.3075 9.97803 2.08452 9.812 1.952L9.634 1.823C9.00923 1.41009 8.29983 1.14253 7.558 1.04 6.215 0.862 4.504 1.229 2.84 3.133L1.786 3.133C1.65316 3.13303 1.52579 3.18592 1.432 3.28L0.146 4.567C-0.0485254 4.76213-0.0485254 5.07787 0.146 5.273L2.717 7.852C2.91202 8.04751 3.2286 8.04791 3.42411 7.85289 3.4244 7.8526 3.4247 7.8523 3.425 7.852L4.711 6.562C4.80447 6.46829 4.85697 6.34135 4.857 6.209L4.857 5.57 13.244 14.443C13.4078 14.6653 13.7208 14.7127 13.9431 14.5489 13.9633 14.534 13.9823 14.5177 14 14.5L15.5 13C15.6883 12.8115 15.6958 12.5085 15.517 12.311L6.388 3.681C7.135 3.225 8.16 2.842 9.5 2.842 9.71228 2.84215 9.90152 2.70824 9.972 2.508Z" fill="#FFFFFF"/></svg>