<svg width="113" height="104" xmlns="http://www.w3.org/2000/svg" xmlns:xlink="http://www.w3.org/1999/xlink" overflow="hidden"><defs><clipPath id="clip0"><rect x="614" y="404" width="113" height="104"/></clipPath><clipPath id="clip1"><rect x="614" y="422" width="80" height="80"/></clipPath><clipPath id="clip2"><rect x="614" y="422" width="80" height="80"/></clipPath><clipPath id="clip3"><rect x="614" y="422" width="80" height="80"/></clipPath></defs><g clip-path="url(#clip0)" transform="translate(-614 -404)"><path d="M617.5 456.5C617.5 428.886 641.901 406.5 672 406.5 702.1 406.5 726.5 428.886 726.5 456.5 726.5 484.114 702.1 506.5 672 506.5 641.901 506.5 617.5 484.114 617.5 456.5Z" stroke="#FFFFFF" stroke-width="1.33333" stroke-miterlimit="8" stroke-dasharray="4 1.33333" fill="none" fill-rule="evenodd"/><path d="M621.5 483.5C621.5 471.902 630.902 462.5 642.5 462.5 654.098 462.5 663.5 471.902 663.5 483.5 663.5 495.098 654.098 504.5 642.5 504.5 630.902 504.5 621.5 495.098 621.5 483.5Z" stroke="#2C394B" stroke-width="1.33333" stroke-miterlimit="8" fill="#2C394B" fill-rule="evenodd"/><g clip-path="url(#clip1)"><g clip-path="url(#clip2)"><g clip-path="url(#clip3)"><path d="M60 6.66667 23.3333 6.66667C19.6567 6.66667 16.6667 9.65667 16.6667 13.3333L16.6667 23.3333C16.6667 27.01 19.6567 30 23.3333 30L60 30C63.6767 30 66.6667 27.01 66.6667 23.3333L66.6667 13.3333C66.6667 9.65667 63.6767 6.66667 60 6.66667Z" fill="#FF7800" transform="matrix(-1 0 0 1 694 422)"/><path d="M43.3333 50 43.3333 43.3333C43.3333 39.6567 40.3433 36.6667 36.6667 36.6667L13.3333 36.6667 13.3333 16.6667C9.65667 16.6667 6.66667 19.6567 6.66667 23.3333L6.66667 36.6667C6.66667 40.3433 9.65667 43.3333 13.3333 43.3333L36.6667 43.3333 36.6667 50C34.8257 50 33.3333 51.4923 33.3333 53.3333L33.3333 70C33.3333 71.841 34.8257 73.3333 36.6667 73.3333L43.3333 73.3333C45.1743 73.3333 46.6667 71.841 46.6667 70L46.6667 53.3333C46.6667 51.4923 45.1743 50 43.3333 50Z" fill="#FF7800" transform="matrix(-1 0 0 1 694 422)"/></g></g></g></g></svg>