<svg width="111" height="104" xmlns="http://www.w3.org/2000/svg" xmlns:xlink="http://www.w3.org/1999/xlink" overflow="hidden"><defs><clipPath id="clip0"><rect x="528" y="257" width="111" height="104"/></clipPath><clipPath id="clip1"><rect x="535" y="274" width="79" height="79"/></clipPath><clipPath id="clip2"><rect x="535" y="274" width="79" height="79"/></clipPath><clipPath id="clip3"><rect x="535" y="274" width="79" height="79"/></clipPath></defs><g clip-path="url(#clip0)" transform="translate(-528 -257)"><path d="M533.5 336.5C533.5 324.902 542.902 315.5 554.5 315.5 566.098 315.5 575.5 324.902 575.5 336.5 575.5 348.098 566.098 357.5 554.5 357.5 542.902 357.5 533.5 348.098 533.5 336.5Z" stroke="#FFFFFF" stroke-width="1.33333" stroke-miterlimit="8" fill="#FFFFFF" fill-rule="evenodd"/><path d="M529.5 309.5C529.5 281.886 553.901 259.5 584 259.5 614.1 259.5 638.5 281.886 638.5 309.5 638.5 337.114 614.1 359.5 584 359.5 553.901 359.5 529.5 337.114 529.5 309.5Z" stroke="#FFFFFF" stroke-width="1.33333" stroke-miterlimit="8" stroke-dasharray="4 1.33333" fill="none" fill-rule="evenodd"/><g clip-path="url(#clip1)"><g clip-path="url(#clip2)"><g clip-path="url(#clip3)"><path d="M605.81 294.119 593.006 306.92 581.37 295.281 594.171 282.479C583.24 277.986 570.736 283.204 566.243 294.135 564.099 299.349 564.1 305.199 566.245 310.412L545.586 331.068C544.301 332.351 544.299 334.433 545.582 335.718 545.583 335.719 545.585 335.721 545.586 335.722L552.571 342.707C553.854 343.992 555.936 343.994 557.221 342.711 557.223 342.71 557.224 342.708 557.225 342.707L577.881 322.048C585.867 325.337 595.048 323.5 601.156 317.394 607.26 311.284 609.095 302.106 605.81 294.119Z" fill="#04192E"/></g></g></g></g></svg>